<?xml version="1.0" standalone="no"?>
<!DOCTYPE svg PUBLIC "-//W3C//DTD SVG 20010904//EN"
 "http://www.w3.org/TR/2001/REC-SVG-20010904/DTD/svg10.dtd">
<svg version="1.0" xmlns="http://www.w3.org/2000/svg"
 width="920.000000pt" height="384.000000pt" viewBox="0 0 920.000000 384.000000"
 preserveAspectRatio="xMidYMid meet">

<g transform="translate(0.000000,384.000000) scale(0.100000,-0.100000)"
fill="#000000" stroke="none">
<path d="M1020 1825 l0 -955 3600 0 3600 0 0 955 0 955 -3600 0 -3600 0 0
-955z m885 553 c8 -18 42 -100 75 -183 123 -304 153 -375 157 -371 2 2 57 133
121 292 l118 289 252 3 252 2 0 -595 0 -595 -185 0 -185 0 0 367 c0 202 -4
363 -9 357 -4 -5 -62 -170 -127 -366 l-119 -358 -120 0 -120 0 -119 358 c-65
196 -122 361 -127 366 -5 6 -9 -146 -9 -357 l0 -367 -185 0 -185 0 0 595 0
595 250 0 250 0 15 -32z m2085 -83 l0 -115 -295 0 -295 0 0 -120 0 -120 295 0
295 0 0 -115 0 -115 -295 0 -295 0 0 -130 0 -129 299 2 300 2 3 -113 c2 -63 1
-116 -1 -118 -2 -2 -222 -4 -488 -4 l-483 0 0 595 0 595 480 0 480 0 0 -115z
m1190 0 l0 -115 -175 0 -175 0 0 -480 0 -480 -185 0 -185 0 -2 478 -3 477
-177 3 -178 2 0 115 0 115 540 0 540 0 0 -115z m1176 82 c105 -58 124 -111
124 -341 0 -147 -3 -177 -20 -214 -35 -78 -120 -132 -212 -135 -27 -1 -48 -6
-48 -10 0 -4 58 -102 130 -216 71 -115 133 -216 136 -225 6 -14 -15 -16 -203
-16 l-210 0 -119 230 -119 230 -77 0 -78 0 0 -230 0 -230 -185 0 -185 0 0 595
0 596 508 -3 507 -3 51 -28z m1358 19 c71 -22 114 -55 142 -112 l25 -50 -3
-426 -3 -425 -30 -49 c-24 -37 -45 -56 -90 -79 l-59 -30 -441 0 -441 0 -59 30
c-45 23 -66 42 -90 79 l-30 49 -3 425 -3 426 26 52 c28 57 66 87 138 110 64
19 855 20 921 0z"/>
<path d="M5660 2060 l0 -120 228 0 c275 0 262 -6 262 118 0 126 9 122 -265
122 l-225 0 0 -120z"/>
<path d="M7022 2164 c-22 -15 -22 -16 -22 -343 0 -260 3 -331 14 -346 12 -17
31 -18 241 -18 211 -1 229 1 241 18 11 15 14 85 14 346 0 327 0 328 -22 343
-19 13 -59 16 -233 16 -174 0 -214 -3 -233 -16z"/>
</g>
</svg>
